<?xml version="1.0" encoding="UTF-8" standalone="no"?>
<svg
   xmlns:osb="http://www.openswatchbook.org/uri/2009/osb"
   xmlns:dc="http://purl.org/dc/elements/1.1/"
   xmlns:cc="http://creativecommons.org/ns#"
   xmlns:rdf="http://www.w3.org/1999/02/22-rdf-syntax-ns#"
   xmlns:svg="http://www.w3.org/2000/svg"
   xmlns="http://www.w3.org/2000/svg"
   xmlns:xlink="http://www.w3.org/1999/xlink"
   xmlns:sodipodi="http://sodipodi.sourceforge.net/DTD/sodipodi-0.dtd"
   xmlns:inkscape="http://www.inkscape.org/namespaces/inkscape"
   version="1.0"
   width="12.470695mm"
   height="30.1625mm"
   id="svg945"
   sodipodi:docname="flacon.svg"
   inkscape:version="1.0 (4035a4f, 2020-05-01)">
  <metadata
     id="metadata949">
    <rdf:RDF>
      <cc:Work
         rdf:about="">
        <dc:format>image/svg+xml</dc:format>
        <dc:type
           rdf:resource="http://purl.org/dc/dcmitype/StillImage" />
        <dc:title />
      </cc:Work>
    </rdf:RDF>
  </metadata>
  <sodipodi:namedview
     inkscape:document-rotation="0"
     pagecolor="#ffffff"
     bordercolor="#666666"
     borderopacity="1"
     objecttolerance="10"
     gridtolerance="10"
     guidetolerance="10"
     inkscape:pageopacity="0"
     inkscape:pageshadow="2"
     inkscape:window-width="1896"
     inkscape:window-height="992"
     id="namedview947"
     showgrid="false"
     showguides="true"
     inkscape:guide-bbox="true"
     inkscape:zoom="5.0640737"
     inkscape:cx="-7.2653415"
     inkscape:cy="104.19022"
     inkscape:window-x="0"
     inkscape:window-y="28"
     inkscape:window-maximized="1"
     inkscape:current-layer="svg945">
    <sodipodi:guide
       position="-57.144263,47.82737"
       orientation="0,-1"
       id="guide1533" />
  </sodipodi:namedview>
  <defs
     id="defs925">
    <linearGradient
       osb:paint="solid"
       id="linearGradient854">
      <stop
         id="stop852"
         offset="0"
         style="stop-color:#c8c8c8;stop-opacity:1;" />
    </linearGradient>
    <linearGradient
       id="linearGradient1554"
       osb:paint="solid">
      <stop
         style="stop-color:#000000;stop-opacity:1;"
         offset="0"
         id="stop1552" />
    </linearGradient>
    <linearGradient
       id="linearGradient1539"
       osb:paint="solid"
       gradientTransform="translate(0.099229,-0.39691636)">
      <stop
         style="stop-color:#afb4ba;stop-opacity:1;"
         offset="0"
         id="stop1537" />
    </linearGradient>
    <pattern
       id="WMFhbasepattern"
       patternUnits="userSpaceOnUse"
       width="6"
       height="6"
       x="0"
       y="0" />
    <linearGradient
       inkscape:collect="always"
       xlink:href="#linearGradient1539"
       id="linearGradient1541"
       x1="-67.972311"
       y1="74.247229"
       x2="-52.799571"
       y2="74.247229"
       gradientUnits="userSpaceOnUse"
       gradientTransform="matrix(1,0,0,0.89308598,0.31166129,6.7641732)" />
    <linearGradient
       inkscape:collect="always"
       xlink:href="#linearGradient1554"
       id="linearGradient1556"
       x1="-67.759879"
       y1="74.247229"
       x2="-52.587138"
       y2="74.247229"
       gradientUnits="userSpaceOnUse"
       gradientTransform="matrix(1,0,0,0.89308598,0.09922909,6.7641732)" />
    <linearGradient
       gradientUnits="userSpaceOnUse"
       y2="120.27982"
       x2="-45.020036"
       y1="120.27982"
       x1="-73.693169"
       id="linearGradient856"
       xlink:href="#linearGradient854"
       inkscape:collect="always" />
  </defs>
  <path
     inkscape:export-ydpi="96"
     inkscape:export-xdpi="96"
     id="path929-3"
     d="m -67.82231,66.520426 -0.06433,17.057659 -0.466666,1.2 -0.666667,1.066667 -0.933333,0.866667 -1.133334,0.733333 -3,1.2 -2.8,1 -1.733333,0.466667 -1.333334,0.666666 -1.2,0.866667 -0.866666,1 -0.8,1.4 -0.333334,0.866667 -0.133333,1 0.06667,52.533331"
     style="fill:none;stroke:#000000;stroke-width:0.666667px;stroke-linecap:round;stroke-linejoin:round;stroke-miterlimit:4;stroke-dasharray:none;stroke-opacity:1"
     sodipodi:nodetypes="cccccccccccccccc" />
  <path
     inkscape:export-ydpi="96"
     inkscape:export-xdpi="96"
     id="path935-6"
     d="m -36.953311,148.44475 0.06667,-52.533331 -0.266666,-1 -0.266671,-0.866667 -0.333333,-0.8 -0.4,-0.6 -0.933334,-1 -1.133333,-0.866667 -1.4,-0.666666 -1.6,-0.466667 -2.933333,-1 -2.933334,-1.2 -1.2,-0.733333 -0.933333,-0.866667 -0.666667,-1.066667 -0.4,-1.2 0.01126,-17.405454"
     style="fill:none;stroke:#000000;stroke-width:0.666667px;stroke-linecap:round;stroke-linejoin:round;stroke-miterlimit:4;stroke-dasharray:none;stroke-opacity:1"
     sodipodi:nodetypes="ccccccccccccccccc" />
  <path
     inkscape:export-ydpi="96"
     inkscape:export-xdpi="96"
     id="path939-7"
     d="m -36.953311,148.84475 v 0.26667 0.53333 1.53333 l -0.4,1.86667 -0.466667,0.93333 -0.533333,1.06667 -0.8,0.86667 -0.8,0.66666 -0.933334,0.46667 -1,0.33333 -1.066666,0.0667 -1.066667,-0.0667 h -0.466667 -31.2 -0.466667 l -1.133333,0.0667 -1,-0.0667 -1.066667,-0.33333 -0.933333,-0.46667 -0.866667,-0.66666 -0.666666,-0.86667 -0.666667,-1.06667 -0.4,-0.93333 -0.333333,-1.86667 v -1.53333 -0.53333 -0.26667"
     style="fill:none;stroke:#000000;stroke-width:0.666667px;stroke-linecap:round;stroke-linejoin:round;stroke-miterlimit:4;stroke-dasharray:none;stroke-opacity:1" />
  <rect
     inkscape:export-ydpi="96"
     inkscape:export-xdpi="96"
     style="fill:url(#linearGradient1541);fill-opacity:1;stroke:url(#linearGradient1556);stroke-width:0.28351;stroke-linecap:square;stroke-miterlimit:4;stroke-dasharray:none;stroke-opacity:0.98;paint-order:markers fill stroke"
     id="rect1535"
     width="14.872741"
     height="13.801403"
     x="-67.510651"
     y="66.17263"
     ry="0.00011839908" />
  <path
     inkscape:export-ydpi="96"
     inkscape:export-xdpi="96"
     id="rect1543"
     style="fill:url(#linearGradient1539);fill-opacity:1;stroke:#000000;stroke-width:0.5;stroke-linecap:square;stroke-miterlimit:4;stroke-dasharray:none;stroke-opacity:0.98;paint-order:markers fill stroke"
     d="m -61.122007,36.875355 1.569548,-0.05675 c 2.345326,10.096548 7.01238,29.31126 7.012307,29.311268 l -0.297628,0.03346 c -7.4e-5,8e-6 -6e-5,7.9e-5 -1.34e-4,7.9e-5 h -15.052272 c -7.3e-5,0 0,0 0,0 2.473171,-12.392283 4.843907,-19.084713 6.768179,-29.288059 z"
     sodipodi:nodetypes="ccssssccc" />
  <rect
     inkscape:export-ydpi="96"
     inkscape:export-xdpi="96"
     ry="0.000132573"
     y="113.74667"
     x="-73.693169"
     height="13.066299"
     width="28.673132"
     id="rect850"
     style="fill:url(#linearGradient856);stroke:#020202;stroke-width:0.6;stroke-linecap:square;stroke-opacity:0.98039198;paint-order:markers fill stroke;stroke-miterlimit:4;stroke-dasharray:none;fill-opacity:1" />
</svg>
